<?xml version="1.0" encoding="iso-8859-1"?>
<!-- Generator: Adobe Illustrator 19.0.0, SVG Export Plug-In . SVG Version: 6.00 Build 0)  -->
<svg version="1.1" id="Layer_1" xmlns="http://www.w3.org/2000/svg" xmlns:xlink="http://www.w3.org/1999/xlink" x="0px" y="0px"
	 viewBox="0 0 330 330" style="enable-background:new 0 0 330 330;" xml:space="preserve">
<g id="XMLID_30_">
	<path id="XMLID_31_" d="M165,0C74.019,0,0,74.019,0,165s74.019,165,165,165s165-74.019,165-165S255.981,0,165,0z M165,300
		c-74.439,0-135-60.561-135-135S90.561,30,165,30s135,60.561,135,135S239.439,300,165,300z"/>
	<path id="XMLID_86_" d="M238.24,83.642c-5.603-2.32-12.057-1.039-16.347,3.252L180,128.787V97.5c0-6.067-3.654-11.536-9.26-13.858
		c-5.605-2.322-12.058-1.039-16.347,3.252L112.5,128.787V97.5c0-8.284-6.716-15-15-15s-15,6.716-15,15v135c0,8.284,6.716,15,15,15
		s15-6.716,15-15v-31.287l41.894,41.893c2.87,2.87,6.706,4.394,10.61,4.394c1.932,0,3.881-0.373,5.737-1.142
		c5.605-2.322,9.26-7.791,9.26-13.858v-31.287l41.894,41.893c2.869,2.87,6.706,4.394,10.609,4.394c1.933,0,3.882-0.373,5.737-1.142
		c5.605-2.322,9.26-7.791,9.26-13.858v-135C247.5,91.433,243.846,85.964,238.24,83.642z"/>
</g>
<g>
</g>
<g>
</g>
<g>
</g>
<g>
</g>
<g>
</g>
<g>
</g>
<g>
</g>
<g>
</g>
<g>
</g>
<g>
</g>
<g>
</g>
<g>
</g>
<g>
</g>
<g>
</g>
<g>
</g>
</svg>
